<mxfile host="app.diagrams.net" modified="2023-01-05T12:45:44.559Z" agent="5.0 (Windows)" etag="d3-F2wq3MoopCGpOwxzL" version="20.4.2" type="github">
  <diagram id="7lGQXFfnrCM3LfUt94uL" name="Page-1">
    <mxGraphModel dx="1218" dy="779" grid="1" gridSize="10" guides="1" tooltips="1" connect="1" arrows="1" fold="1" page="1" pageScale="1" pageWidth="850" pageHeight="1100" math="0" shadow="0">
      <root>
        <mxCell id="0" />
        <mxCell id="1" parent="0" />
        <mxCell id="hQnvw_6kECJiyrSSrivd-7" style="edgeStyle=orthogonalEdgeStyle;rounded=0;orthogonalLoop=1;jettySize=auto;html=1;exitX=0;exitY=1;exitDx=0;exitDy=0;entryX=0;entryY=0.5;entryDx=0;entryDy=0;strokeColor=default;endArrow=none;endFill=0;" edge="1" parent="1" source="hQnvw_6kECJiyrSSrivd-1" target="hQnvw_6kECJiyrSSrivd-4">
          <mxGeometry relative="1" as="geometry">
            <Array as="points">
              <mxPoint x="180" y="180" />
              <mxPoint x="180" y="215" />
            </Array>
          </mxGeometry>
        </mxCell>
        <mxCell id="hQnvw_6kECJiyrSSrivd-1" value="&lt;div&gt;PLC&lt;/div&gt;" style="rounded=0;whiteSpace=wrap;html=1;" vertex="1" parent="1">
          <mxGeometry x="170" y="120" width="120" height="60" as="geometry" />
        </mxCell>
        <mxCell id="hQnvw_6kECJiyrSSrivd-4" value="&lt;div&gt;Axis 1&lt;/div&gt;" style="rounded=1;whiteSpace=wrap;html=1;" vertex="1" parent="1">
          <mxGeometry x="200" y="200" width="120" height="30" as="geometry" />
        </mxCell>
        <mxCell id="hQnvw_6kECJiyrSSrivd-10" style="edgeStyle=orthogonalEdgeStyle;rounded=0;orthogonalLoop=1;jettySize=auto;html=1;exitX=0;exitY=0.5;exitDx=0;exitDy=0;strokeColor=default;endArrow=none;endFill=0;" edge="1" parent="1" source="hQnvw_6kECJiyrSSrivd-8">
          <mxGeometry relative="1" as="geometry">
            <mxPoint x="180" y="210" as="targetPoint" />
          </mxGeometry>
        </mxCell>
        <mxCell id="hQnvw_6kECJiyrSSrivd-8" value="&lt;div&gt;Axis &lt;i&gt;2&lt;/i&gt;&lt;br&gt;&lt;/div&gt;" style="rounded=1;whiteSpace=wrap;html=1;" vertex="1" parent="1">
          <mxGeometry x="200" y="270" width="120" height="30" as="geometry" />
        </mxCell>
        <mxCell id="hQnvw_6kECJiyrSSrivd-11" style="edgeStyle=orthogonalEdgeStyle;rounded=0;orthogonalLoop=1;jettySize=auto;html=1;exitX=0;exitY=0.5;exitDx=0;exitDy=0;strokeColor=default;endArrow=none;endFill=0;" edge="1" parent="1" source="hQnvw_6kECJiyrSSrivd-9">
          <mxGeometry relative="1" as="geometry">
            <mxPoint x="180" y="260" as="targetPoint" />
          </mxGeometry>
        </mxCell>
        <mxCell id="hQnvw_6kECJiyrSSrivd-12" value="&lt;i&gt;device&lt;/i&gt;" style="text;html=1;strokeColor=none;fillColor=none;align=center;verticalAlign=middle;whiteSpace=wrap;rounded=0;" vertex="1" parent="1">
          <mxGeometry x="280" y="180" width="40" height="20" as="geometry" />
        </mxCell>
        <mxCell id="hQnvw_6kECJiyrSSrivd-13" value="&lt;i&gt;device&lt;/i&gt;" style="text;html=1;strokeColor=none;fillColor=none;align=center;verticalAlign=middle;whiteSpace=wrap;rounded=0;" vertex="1" parent="1">
          <mxGeometry x="280" y="250" width="40" height="20" as="geometry" />
        </mxCell>
        <mxCell id="hQnvw_6kECJiyrSSrivd-15" value="&lt;i&gt;controller&lt;/i&gt;" style="text;html=1;strokeColor=none;fillColor=none;align=center;verticalAlign=middle;whiteSpace=wrap;rounded=0;" vertex="1" parent="1">
          <mxGeometry x="230" y="100" width="60" height="20" as="geometry" />
        </mxCell>
        <mxCell id="hQnvw_6kECJiyrSSrivd-22" style="edgeStyle=orthogonalEdgeStyle;rounded=0;orthogonalLoop=1;jettySize=auto;html=1;entryX=0.5;entryY=1;entryDx=0;entryDy=0;strokeColor=default;endArrow=none;endFill=0;" edge="1" parent="1" source="hQnvw_6kECJiyrSSrivd-18" target="hQnvw_6kECJiyrSSrivd-4">
          <mxGeometry relative="1" as="geometry" />
        </mxCell>
        <mxCell id="hQnvw_6kECJiyrSSrivd-18" value="GSD A" style="whiteSpace=wrap;html=1;shape=mxgraph.basic.document" vertex="1" parent="1">
          <mxGeometry x="340" y="230" width="50" height="40" as="geometry" />
        </mxCell>
        <mxCell id="hQnvw_6kECJiyrSSrivd-21" style="edgeStyle=orthogonalEdgeStyle;rounded=0;orthogonalLoop=1;jettySize=auto;html=1;entryX=0.5;entryY=1;entryDx=0;entryDy=0;strokeColor=default;endArrow=none;endFill=0;" edge="1" parent="1" source="hQnvw_6kECJiyrSSrivd-20" target="hQnvw_6kECJiyrSSrivd-8">
          <mxGeometry relative="1" as="geometry" />
        </mxCell>
        <mxCell id="hQnvw_6kECJiyrSSrivd-20" value="GSD B" style="whiteSpace=wrap;html=1;shape=mxgraph.basic.document" vertex="1" parent="1">
          <mxGeometry x="340" y="300" width="50" height="40" as="geometry" />
        </mxCell>
        <mxCell id="hQnvw_6kECJiyrSSrivd-25" value="&#xa;&#xa;pnet on Linux" style="swimlane;startSize=0;" vertex="1" parent="1">
          <mxGeometry x="160" y="350" width="260" height="200" as="geometry">
            <mxRectangle x="160" y="350" width="50" height="40" as="alternateBounds" />
          </mxGeometry>
        </mxCell>
        <mxCell id="hQnvw_6kECJiyrSSrivd-9" value="&lt;div&gt;Accuracy Co Controller&lt;/div&gt;&lt;div&gt;(ACC)&lt;/div&gt;" style="rounded=1;whiteSpace=wrap;html=1;" vertex="1" parent="hQnvw_6kECJiyrSSrivd-25">
          <mxGeometry x="40" y="60" width="120" height="60" as="geometry" />
        </mxCell>
        <mxCell id="hQnvw_6kECJiyrSSrivd-16" value="&lt;i&gt;device&lt;/i&gt;" style="text;html=1;strokeColor=none;fillColor=none;align=center;verticalAlign=middle;whiteSpace=wrap;rounded=0;" vertex="1" parent="hQnvw_6kECJiyrSSrivd-25">
          <mxGeometry x="120" y="40" width="40" height="20" as="geometry" />
        </mxCell>
        <mxCell id="hQnvw_6kECJiyrSSrivd-24" style="edgeStyle=orthogonalEdgeStyle;rounded=0;orthogonalLoop=1;jettySize=auto;html=1;exitX=0;exitY=0.5;exitDx=0;exitDy=0;exitPerimeter=0;strokeColor=default;endArrow=none;endFill=0;entryX=0.5;entryY=1;entryDx=0;entryDy=0;" edge="1" parent="hQnvw_6kECJiyrSSrivd-25" source="hQnvw_6kECJiyrSSrivd-23" target="hQnvw_6kECJiyrSSrivd-9">
          <mxGeometry relative="1" as="geometry" />
        </mxCell>
        <mxCell id="hQnvw_6kECJiyrSSrivd-23" value="GSD C" style="whiteSpace=wrap;html=1;shape=mxgraph.basic.document" vertex="1" parent="hQnvw_6kECJiyrSSrivd-25">
          <mxGeometry x="180" y="120" width="50" height="40" as="geometry" />
        </mxCell>
      </root>
    </mxGraphModel>
  </diagram>
</mxfile>
